<svg version="1.1" xmlns="http://www.w3.org/2000/svg" width="224px" height="224px" style="background: #FFFFFF">
<rect x="20" y="20" width="8" height="8" style="fill:#000000"></rect>
<rect x="20" y="36" width="8" height="8" style="fill:#000000"></rect>
<rect x="20" y="44" width="8" height="8" style="fill:#000000"></rect>
<rect x="20" y="52" width="8" height="8" style="fill:#000000"></rect>
<rect x="20" y="60" width="8" height="8" style="fill:#000000"></rect>
<rect x="20" y="68" width="8" height="8" style="fill:#000000"></rect>
<rect x="28" y="20" width="8" height="8" style="fill:#000000"></rect>
<rect x="28" y="36" width="8" height="8" style="fill:#000000"></rect>
<rect x="28" y="68" width="8" height="8" style="fill:#000000"></rect>
<rect x="36" y="20" width="8" height="8" style="fill:#000000"></rect>
<rect x="36" y="36" width="8" height="8" style="fill:#000000"></rect>
<rect x="36" y="44" width="8" height="8" style="fill:#000000"></rect>
<rect x="36" y="52" width="8" height="8" style="fill:#000000"></rect>
<rect x="36" y="60" width="8" height="8" style="fill:#000000"></rect>
<rect x="36" y="68" width="8" height="8" style="fill:#000000"></rect>

<rect x="44" y="20" width="8" height="8" style="fill:#9b0000"></rect>
<rect x="52" y="20" width="8" height="8" style="fill:#000000"></rect>
<rect x="52" y="28" width="8" height="8" style="fill:#000000"></rect>
<rect x="52" y="36" width="8" height="8" style="fill:#000000"></rect>
<rect x="52" y="44" width="8" height="8" style="fill:#000000"></rect>
<rect x="52" y="52" width="8" height="8" style="fill:#000000"></rect>
<rect x="52" y="60" width="8" height="8" style="fill:#000000"></rect>
<rect x="52" y="68" width="8" height="8" style="fill:#000000"></rect>
<rect x="60" y="20" width="8" height="8" style="fill:#000000"></rect>
<rect x="60" y="52" width="8" height="8" style="fill:#000000"></rect>
<rect x="60" y="68" width="8" height="8" style="fill:#000000"></rect>
<rect x="68" y="20" width="8" height="8" style="fill:#000000"></rect>
<rect x="68" y="28" width="8" height="8" style="fill:#000000"></rect>
<rect x="68" y="36" width="8" height="8" style="fill:#000000"></rect>
<rect x="68" y="44" width="8" height="8" style="fill:#000000"></rect>
<rect x="68" y="52" width="8" height="8" style="fill:#000000"></rect>
<rect x="68" y="60" width="8" height="8" style="fill:#000000"></rect>
<rect x="68" y="68" width="8" height="8" style="fill:#000000"></rect>

<rect x="76" y="68" width="8" height="8" style="fill:#9b0000"></rect>
<rect x="84" y="20" width="8" height="8" style="fill:#000000"></rect>
<rect x="84" y="28" width="8" height="8" style="fill:#000000"></rect>
<rect x="84" y="44" width="8" height="8" style="fill:#000000"></rect>
<rect x="84" y="52" width="8" height="8" style="fill:#000000"></rect>
<rect x="84" y="60" width="8" height="8" style="fill:#000000"></rect>
<rect x="84" y="68" width="8" height="8" style="fill:#000000"></rect>
<rect x="92" y="20" width="8" height="8" style="fill:#000000"></rect>
<rect x="92" y="68" width="8" height="8" style="fill:#000000"></rect>
<rect x="100" y="20" width="8" height="8" style="fill:#000000"></rect>
<rect x="100" y="28" width="8" height="8" style="fill:#000000"></rect>
<rect x="100" y="36" width="8" height="8" style="fill:#000000"></rect>
<rect x="100" y="44" width="8" height="8" style="fill:#000000"></rect>
<rect x="100" y="52" width="8" height="8" style="fill:#000000"></rect>
<rect x="100" y="60" width="8" height="8" style="fill:#000000"></rect>
<rect x="100" y="68" width="8" height="8" style="fill:#000000"></rect>

<rect x="108" y="68" width="8" height="8" style="fill:#9b0000"></rect>
<rect x="116" y="20" width="8" height="8" style="fill:#000000"></rect>
<rect x="116" y="28" width="8" height="8" style="fill:#000000"></rect>
<rect x="116" y="36" width="8" height="8" style="fill:#000000"></rect>
<rect x="116" y="44" width="8" height="8" style="fill:#000000"></rect>
<rect x="116" y="52" width="8" height="8" style="fill:#000000"></rect>
<rect x="124" y="52" width="8" height="8" style="fill:#000000"></rect>
<rect x="132" y="20" width="8" height="8" style="fill:#000000"></rect>
<rect x="132" y="28" width="8" height="8" style="fill:#000000"></rect>
<rect x="132" y="36" width="8" height="8" style="fill:#000000"></rect>
<rect x="132" y="44" width="8" height="8" style="fill:#000000"></rect>
<rect x="132" y="52" width="8" height="8" style="fill:#000000"></rect>
<rect x="132" y="60" width="8" height="8" style="fill:#000000"></rect>
<rect x="132" y="68" width="8" height="8" style="fill:#000000"></rect>

<rect x="140" y="20" width="8" height="8" style="fill:#9b0000"></rect>
<rect x="116" y="68" width="8" height="8" style="fill:#9b0000"></rect>
<rect x="148" y="20" width="8" height="8" style="fill:#000000"></rect>
<rect x="148" y="28" width="8" height="8" style="fill:#000000"></rect>
<rect x="148" y="36" width="8" height="8" style="fill:#000000"></rect>
<rect x="148" y="52" width="8" height="8" style="fill:#000000"></rect>
<rect x="148" y="60" width="8" height="8" style="fill:#000000"></rect>
<rect x="148" y="68" width="8" height="8" style="fill:#000000"></rect>
<rect x="156" y="20" width="8" height="8" style="fill:#000000"></rect>
<rect x="156" y="52" width="8" height="8" style="fill:#000000"></rect>
<rect x="156" y="68" width="8" height="8" style="fill:#000000"></rect>
<rect x="164" y="20" width="8" height="8" style="fill:#000000"></rect>
<rect x="164" y="28" width="8" height="8" style="fill:#000000"></rect>
<rect x="164" y="36" width="8" height="8" style="fill:#000000"></rect>
<rect x="164" y="44" width="8" height="8" style="fill:#000000"></rect>
<rect x="164" y="52" width="8" height="8" style="fill:#000000"></rect>
<rect x="164" y="68" width="8" height="8" style="fill:#000000"></rect>

<rect x="180" y="20" width="8" height="8" style="fill:#000000"></rect>
<rect x="180" y="28" width="8" height="8" style="fill:#000000"></rect>
<rect x="180" y="36" width="8" height="8" style="fill:#000000"></rect>
<rect x="180" y="52" width="8" height="8" style="fill:#000000"></rect>
<rect x="180" y="60" width="8" height="8" style="fill:#000000"></rect>
<rect x="180" y="68" width="8" height="8" style="fill:#000000"></rect>
<rect x="188" y="20" width="8" height="8" style="fill:#000000"></rect>
<rect x="188" y="36" width="8" height="8" style="fill:#000000"></rect>
<rect x="188" y="52" width="8" height="8" style="fill:#000000"></rect>
<rect x="188" y="68" width="8" height="8" style="fill:#000000"></rect>
<rect x="196" y="20" width="8" height="8" style="fill:#000000"></rect>
<rect x="196" y="28" width="8" height="8" style="fill:#000000"></rect>
<rect x="196" y="36" width="8" height="8" style="fill:#000000"></rect>
<rect x="196" y="44" width="8" height="8" style="fill:#000000"></rect>
<rect x="196" y="52" width="8" height="8" style="fill:#000000"></rect>
<rect x="196" y="60" width="8" height="8" style="fill:#000000"></rect>
<rect x="196" y="68" width="8" height="8" style="fill:#000000"></rect>

<rect x="20" y="84" width="8" height="8" style="fill:#000000"></rect>
<rect x="20" y="92" width="8" height="8" style="fill:#000000"></rect>
<rect x="20" y="100" width="8" height="8" style="fill:#000000"></rect>
<rect x="20" y="108" width="8" height="8" style="fill:#000000"></rect>
<rect x="20" y="116" width="8" height="8" style="fill:#000000"></rect>
<rect x="20" y="124" width="8" height="8" style="fill:#000000"></rect>
<rect x="20" y="132" width="8" height="8" style="fill:#000000"></rect>
<rect x="28" y="84" width="8" height="8" style="fill:#000000"></rect>
<rect x="28" y="100" width="8" height="8" style="fill:#000000"></rect>
<rect x="28" y="132" width="8" height="8" style="fill:#000000"></rect>
<rect x="36" y="84" width="8" height="8" style="fill:#000000"></rect>
<rect x="36" y="100" width="8" height="8" style="fill:#000000"></rect>
<rect x="36" y="108" width="8" height="8" style="fill:#000000"></rect>
<rect x="36" y="116" width="8" height="8" style="fill:#000000"></rect>
<rect x="36" y="124" width="8" height="8" style="fill:#000000"></rect>
<rect x="36" y="132" width="8" height="8" style="fill:#000000"></rect>

<rect x="44" y="132" width="8" height="8" style="fill:#9b0000"></rect>
<rect x="52" y="84" width="8" height="8" style="fill:#000000"></rect>
<rect x="52" y="100" width="8" height="8" style="fill:#000000"></rect>
<rect x="52" y="108" width="8" height="8" style="fill:#000000"></rect>
<rect x="52" y="116" width="8" height="8" style="fill:#000000"></rect>
<rect x="52" y="124" width="8" height="8" style="fill:#000000"></rect>
<rect x="52" y="132" width="8" height="8" style="fill:#000000"></rect>
<rect x="60" y="84" width="8" height="8" style="fill:#000000"></rect>
<rect x="68" y="84" width="8" height="8" style="fill:#000000"></rect>
<rect x="68" y="92" width="8" height="8" style="fill:#000000"></rect>
<rect x="68" y="100" width="8" height="8" style="fill:#000000"></rect>
<rect x="68" y="108" width="8" height="8" style="fill:#000000"></rect>
<rect x="68" y="116" width="8" height="8" style="fill:#000000"></rect>
<rect x="68" y="124" width="8" height="8" style="fill:#000000"></rect>
<rect x="68" y="132" width="8" height="8" style="fill:#000000"></rect>

<rect x="76" y="84" width="8" height="8" style="fill:#9b0000"></rect>
<rect x="52" y="100" width="8" height="8" style="fill:#9b0000"></rect>
<rect x="52" y="108" width="8" height="8" style="fill:#9b0000"></rect>
<rect x="52" y="116" width="8" height="8" style="fill:#9b0000"></rect>
<rect x="52" y="124" width="8" height="8" style="fill:#9b0000"></rect>
<rect x="52" y="132" width="8" height="8" style="fill:#9b0000"></rect>
<rect x="84" y="84" width="8" height="8" style="fill:#000000"></rect>
<rect x="84" y="100" width="8" height="8" style="fill:#000000"></rect>
<rect x="84" y="116" width="8" height="8" style="fill:#000000"></rect>
<rect x="84" y="124" width="8" height="8" style="fill:#000000"></rect>
<rect x="84" y="132" width="8" height="8" style="fill:#000000"></rect>
<rect x="92" y="84" width="8" height="8" style="fill:#000000"></rect>
<rect x="92" y="100" width="8" height="8" style="fill:#000000"></rect>
<rect x="92" y="116" width="8" height="8" style="fill:#000000"></rect>
<rect x="92" y="132" width="8" height="8" style="fill:#000000"></rect>
<rect x="100" y="84" width="8" height="8" style="fill:#000000"></rect>
<rect x="100" y="92" width="8" height="8" style="fill:#000000"></rect>
<rect x="100" y="100" width="8" height="8" style="fill:#000000"></rect>
<rect x="100" y="108" width="8" height="8" style="fill:#000000"></rect>
<rect x="100" y="116" width="8" height="8" style="fill:#000000"></rect>
<rect x="100" y="132" width="8" height="8" style="fill:#000000"></rect>

<rect x="108" y="132" width="8" height="8" style="fill:#9b0000"></rect>
<rect x="116" y="84" width="8" height="8" style="fill:#000000"></rect>
<rect x="116" y="92" width="8" height="8" style="fill:#000000"></rect>
<rect x="116" y="108" width="8" height="8" style="fill:#000000"></rect>
<rect x="116" y="116" width="8" height="8" style="fill:#000000"></rect>
<rect x="116" y="124" width="8" height="8" style="fill:#000000"></rect>
<rect x="116" y="132" width="8" height="8" style="fill:#000000"></rect>
<rect x="124" y="84" width="8" height="8" style="fill:#000000"></rect>
<rect x="124" y="132" width="8" height="8" style="fill:#000000"></rect>
<rect x="132" y="84" width="8" height="8" style="fill:#000000"></rect>
<rect x="132" y="92" width="8" height="8" style="fill:#000000"></rect>
<rect x="132" y="100" width="8" height="8" style="fill:#000000"></rect>
<rect x="132" y="108" width="8" height="8" style="fill:#000000"></rect>
<rect x="132" y="116" width="8" height="8" style="fill:#000000"></rect>
<rect x="132" y="124" width="8" height="8" style="fill:#000000"></rect>
<rect x="132" y="132" width="8" height="8" style="fill:#000000"></rect>

<rect x="140" y="132" width="8" height="8" style="fill:#9b0000"></rect>
<rect x="148" y="84" width="8" height="8" style="fill:#000000"></rect>
<rect x="148" y="92" width="8" height="8" style="fill:#000000"></rect>
<rect x="148" y="100" width="8" height="8" style="fill:#000000"></rect>
<rect x="148" y="108" width="8" height="8" style="fill:#000000"></rect>
<rect x="148" y="116" width="8" height="8" style="fill:#000000"></rect>
<rect x="148" y="124" width="8" height="8" style="fill:#000000"></rect>
<rect x="148" y="132" width="8" height="8" style="fill:#000000"></rect>
<rect x="156" y="132" width="8" height="8" style="fill:#000000"></rect>
<rect x="164" y="84" width="8" height="8" style="fill:#000000"></rect>
<rect x="164" y="92" width="8" height="8" style="fill:#000000"></rect>
<rect x="164" y="100" width="8" height="8" style="fill:#000000"></rect>
<rect x="164" y="108" width="8" height="8" style="fill:#000000"></rect>
<rect x="164" y="116" width="8" height="8" style="fill:#000000"></rect>
<rect x="164" y="132" width="8" height="8" style="fill:#000000"></rect>

<rect x="172" y="84" width="8" height="8" style="fill:#9b0000"></rect>
<rect x="164" y="84" width="8" height="8" style="fill:#9b0000"></rect>
<rect x="164" y="92" width="8" height="8" style="fill:#9b0000"></rect>
<rect x="164" y="100" width="8" height="8" style="fill:#9b0000"></rect>
<rect x="164" y="108" width="8" height="8" style="fill:#9b0000"></rect>
<rect x="164" y="116" width="8" height="8" style="fill:#9b0000"></rect>
<rect x="180" y="84" width="8" height="8" style="fill:#000000"></rect>
<rect x="180" y="92" width="8" height="8" style="fill:#000000"></rect>
<rect x="180" y="100" width="8" height="8" style="fill:#000000"></rect>
<rect x="180" y="108" width="8" height="8" style="fill:#000000"></rect>
<rect x="180" y="116" width="8" height="8" style="fill:#000000"></rect>
<rect x="180" y="124" width="8" height="8" style="fill:#000000"></rect>
<rect x="180" y="132" width="8" height="8" style="fill:#000000"></rect>
<rect x="188" y="84" width="8" height="8" style="fill:#000000"></rect>
<rect x="188" y="108" width="8" height="8" style="fill:#000000"></rect>
<rect x="188" y="124" width="8" height="8" style="fill:#000000"></rect>
<rect x="196" y="84" width="8" height="8" style="fill:#000000"></rect>
<rect x="196" y="92" width="8" height="8" style="fill:#000000"></rect>
<rect x="196" y="100" width="8" height="8" style="fill:#000000"></rect>
<rect x="196" y="108" width="8" height="8" style="fill:#000000"></rect>
<rect x="196" y="124" width="8" height="8" style="fill:#000000"></rect>
<rect x="196" y="132" width="8" height="8" style="fill:#000000"></rect>

<rect x="196" y="140" width="8" height="8" style="fill:#9b0000"></rect>
<rect x="20" y="148" width="8" height="8" style="fill:#000000"></rect>
<rect x="20" y="156" width="8" height="8" style="fill:#000000"></rect>
<rect x="20" y="164" width="8" height="8" style="fill:#000000"></rect>
<rect x="20" y="172" width="8" height="8" style="fill:#000000"></rect>
<rect x="20" y="180" width="8" height="8" style="fill:#000000"></rect>
<rect x="20" y="196" width="8" height="8" style="fill:#000000"></rect>
<rect x="28" y="180" width="8" height="8" style="fill:#000000"></rect>
<rect x="28" y="196" width="8" height="8" style="fill:#000000"></rect>
<rect x="36" y="148" width="8" height="8" style="fill:#000000"></rect>
<rect x="36" y="156" width="8" height="8" style="fill:#000000"></rect>
<rect x="36" y="164" width="8" height="8" style="fill:#000000"></rect>
<rect x="36" y="172" width="8" height="8" style="fill:#000000"></rect>
<rect x="36" y="180" width="8" height="8" style="fill:#000000"></rect>
<rect x="36" y="188" width="8" height="8" style="fill:#000000"></rect>
<rect x="36" y="196" width="8" height="8" style="fill:#000000"></rect>

<rect x="44" y="148" width="8" height="8" style="fill:#9b0000"></rect>
<rect x="52" y="148" width="8" height="8" style="fill:#000000"></rect>
<rect x="52" y="156" width="8" height="8" style="fill:#000000"></rect>
<rect x="52" y="164" width="8" height="8" style="fill:#000000"></rect>
<rect x="52" y="172" width="8" height="8" style="fill:#000000"></rect>
<rect x="52" y="180" width="8" height="8" style="fill:#000000"></rect>
<rect x="52" y="188" width="8" height="8" style="fill:#000000"></rect>
<rect x="52" y="196" width="8" height="8" style="fill:#000000"></rect>
<rect x="60" y="148" width="8" height="8" style="fill:#000000"></rect>
<rect x="60" y="180" width="8" height="8" style="fill:#000000"></rect>
<rect x="60" y="196" width="8" height="8" style="fill:#000000"></rect>
<rect x="68" y="148" width="8" height="8" style="fill:#000000"></rect>
<rect x="68" y="156" width="8" height="8" style="fill:#000000"></rect>
<rect x="68" y="164" width="8" height="8" style="fill:#000000"></rect>
<rect x="68" y="172" width="8" height="8" style="fill:#000000"></rect>
<rect x="68" y="180" width="8" height="8" style="fill:#000000"></rect>
<rect x="68" y="188" width="8" height="8" style="fill:#000000"></rect>
<rect x="68" y="196" width="8" height="8" style="fill:#000000"></rect>

<rect x="76" y="196" width="8" height="8" style="fill:#9b0000"></rect>
<rect x="84" y="148" width="8" height="8" style="fill:#000000"></rect>
<rect x="84" y="156" width="8" height="8" style="fill:#000000"></rect>
<rect x="84" y="164" width="8" height="8" style="fill:#000000"></rect>
<rect x="84" y="172" width="8" height="8" style="fill:#000000"></rect>
<rect x="84" y="180" width="8" height="8" style="fill:#000000"></rect>
<rect x="84" y="188" width="8" height="8" style="fill:#000000"></rect>
<rect x="84" y="196" width="8" height="8" style="fill:#000000"></rect>
<rect x="92" y="148" width="8" height="8" style="fill:#000000"></rect>
<rect x="100" y="148" width="8" height="8" style="fill:#000000"></rect>
<rect x="100" y="164" width="8" height="8" style="fill:#000000"></rect>
<rect x="100" y="172" width="8" height="8" style="fill:#000000"></rect>
<rect x="100" y="180" width="8" height="8" style="fill:#000000"></rect>
<rect x="100" y="188" width="8" height="8" style="fill:#000000"></rect>
<rect x="100" y="196" width="8" height="8" style="fill:#000000"></rect>

<rect x="108" y="164" width="8" height="8" style="fill:#9b0000"></rect>
<rect x="100" y="164" width="8" height="8" style="fill:#9b0000"></rect>
<rect x="100" y="172" width="8" height="8" style="fill:#9b0000"></rect>
<rect x="100" y="180" width="8" height="8" style="fill:#9b0000"></rect>
<rect x="100" y="188" width="8" height="8" style="fill:#9b0000"></rect>
<rect x="100" y="196" width="8" height="8" style="fill:#9b0000"></rect>
<rect x="116" y="148" width="8" height="8" style="fill:#000000"></rect>
<rect x="116" y="156" width="8" height="8" style="fill:#000000"></rect>
<rect x="116" y="164" width="8" height="8" style="fill:#000000"></rect>
<rect x="116" y="172" width="8" height="8" style="fill:#000000"></rect>
<rect x="116" y="180" width="8" height="8" style="fill:#000000"></rect>
<rect x="116" y="188" width="8" height="8" style="fill:#000000"></rect>
<rect x="116" y="196" width="8" height="8" style="fill:#000000"></rect>
<rect x="124" y="148" width="8" height="8" style="fill:#000000"></rect>
<rect x="124" y="188" width="8" height="8" style="fill:#000000"></rect>
<rect x="132" y="148" width="8" height="8" style="fill:#000000"></rect>
<rect x="132" y="156" width="8" height="8" style="fill:#000000"></rect>
<rect x="132" y="164" width="8" height="8" style="fill:#000000"></rect>
<rect x="132" y="172" width="8" height="8" style="fill:#000000"></rect>
<rect x="132" y="180" width="8" height="8" style="fill:#000000"></rect>
<rect x="132" y="188" width="8" height="8" style="fill:#000000"></rect>

<rect x="140" y="188" width="8" height="8" style="fill:#9b0000"></rect>
<rect x="148" y="148" width="8" height="8" style="fill:#000000"></rect>
<rect x="148" y="156" width="8" height="8" style="fill:#000000"></rect>
<rect x="148" y="164" width="8" height="8" style="fill:#000000"></rect>
<rect x="148" y="172" width="8" height="8" style="fill:#000000"></rect>
<rect x="148" y="180" width="8" height="8" style="fill:#000000"></rect>
<rect x="148" y="188" width="8" height="8" style="fill:#000000"></rect>
<rect x="156" y="188" width="8" height="8" style="fill:#000000"></rect>
<rect x="156" y="196" width="8" height="8" style="fill:#000000"></rect>
<rect x="164" y="148" width="8" height="8" style="fill:#000000"></rect>
<rect x="164" y="156" width="8" height="8" style="fill:#000000"></rect>
<rect x="164" y="164" width="8" height="8" style="fill:#000000"></rect>
<rect x="164" y="172" width="8" height="8" style="fill:#000000"></rect>
<rect x="164" y="180" width="8" height="8" style="fill:#000000"></rect>
<rect x="164" y="188" width="8" height="8" style="fill:#000000"></rect>

<rect x="172" y="148" width="8" height="8" style="fill:#9b0000"></rect>
<rect x="180" y="148" width="8" height="8" style="fill:#000000"></rect>
<rect x="180" y="156" width="8" height="8" style="fill:#000000"></rect>
<rect x="180" y="164" width="8" height="8" style="fill:#000000"></rect>
<rect x="180" y="172" width="8" height="8" style="fill:#000000"></rect>
<rect x="180" y="180" width="8" height="8" style="fill:#000000"></rect>
<rect x="180" y="188" width="8" height="8" style="fill:#000000"></rect>
<rect x="180" y="196" width="8" height="8" style="fill:#000000"></rect>
<rect x="188" y="148" width="8" height="8" style="fill:#000000"></rect>
<rect x="188" y="180" width="8" height="8" style="fill:#000000"></rect>
<rect x="188" y="196" width="8" height="8" style="fill:#000000"></rect>
<rect x="196" y="148" width="8" height="8" style="fill:#000000"></rect>
<rect x="196" y="156" width="8" height="8" style="fill:#000000"></rect>
<rect x="196" y="164" width="8" height="8" style="fill:#000000"></rect>
<rect x="196" y="180" width="8" height="8" style="fill:#000000"></rect>
<rect x="196" y="196" width="8" height="8" style="fill:#000000"></rect>

</svg>